<svg class="top-navigation__logo" height="79px" version="1.1" viewBox="0 0 347 79" width="347px" xmlns="http://www.w3.org/2000/svg" xmlns:xlink="http://www.w3.org/1999/xlink">
<g fill="none" fill-rule="evenodd" stroke="none" stroke-width="1">
<path class="top-navigation__logo__symbol" d="M90.7498703,30.149 L90.7498703,33.047 C90.7498703,33.67 91.2638703,34.073 91.8498703,33.963 C102.74387,31.58 168.10387,16.761 173.53187,16.761 C178.95987,16.761 244.31887,31.653 255.21387,34.037 C255.80087,34.147 256.31387,33.744 256.31387,33.12 L256.31387,30.149 C256.31387,29.82 256.09387,29.525 255.80087,29.416 L173.53187,0 L91.2638703,29.416 C90.9708703,29.525 90.7498703,29.82 90.7498703,30.149" fill="#2E2D2C"></path>
<g class="top-navigation__logo__type">
<path d="M345.88097,56.6303 L301.90397,56.6303 C301.42797,56.6303 301.05997,56.9973 301.05997,57.4733 L301.05997,62.4613 C301.05997,62.9393 301.42797,63.3063 301.90397,63.3063 L322.11297,63.3063 L322.11297,78.3813 C322.11297,78.8573 322.47997,79.2243 322.95797,79.2243 L324.86497,79.2243 C325.34097,79.2243 325.70797,78.8573 325.70797,78.3813 L325.70797,63.3063 L345.88097,63.3063 C346.35797,63.3063 346.72397,62.9393 346.72397,62.4613 L346.72397,57.4733 C346.72397,56.9973 346.35797,56.6303 345.88097,56.6303 L345.88097,56.6303 Z M137.32997,57.4733 L137.32997,78.3813 C137.32997,78.8573 137.69797,79.2243 138.17397,79.2243 L143.16297,79.2243 C143.63897,79.2243 144.00597,78.8573 144.00597,78.3813 L144.00597,57.4733 C144.00597,56.9973 143.63897,56.6303 143.16297,56.6303 L138.17397,56.6303 C137.69797,56.6303 137.32997,56.9973 137.32997,57.4733 L137.32997,57.4733 Z M69.5869703,75.2263 C68.6689703,75.6293 68.2299703,76.1073 68.2299703,77.0963 C68.2299703,78.2703 68.8159703,79.2243 70.4299703,79.2243 L114.11197,79.2243 C114.58997,79.2243 114.95697,78.8573 114.95697,78.3813 L114.95697,76.6573 C114.95697,76.1793 114.58997,75.8133 114.11197,75.8133 L81.3599703,75.8133 L114.07597,60.9223 C114.99297,60.5183 115.58097,59.9683 115.58097,58.7583 C115.58097,57.5833 114.99297,56.6303 113.37997,56.6303 L70.1729703,56.6303 C69.6969703,56.6303 69.3299703,56.9973 69.3299703,57.4733 L69.3299703,59.1973 C69.3299703,59.6753 69.6969703,60.0413 70.1729703,60.0413 L102.92697,60.0413 L69.5869703,75.2263 Z M237.42497,57.4733 L237.42497,75.7763 C237.42497,77.7573 238.89097,79.2243 240.87197,79.2243 L279.64097,79.2243 C281.62197,79.2243 283.08897,77.7573 283.08897,75.7763 L283.08897,57.4733 C283.08897,56.9973 282.72197,56.6303 282.24597,56.6303 L280.33697,56.6303 C279.86097,56.6303 279.49397,56.9973 279.49397,57.4733 L279.49397,70.6773 C279.49397,71.7413 278.68697,72.5483 277.62297,72.5483 L242.88897,72.5483 C241.82597,72.5483 241.01897,71.7413 241.01897,70.6773 L241.01897,57.4733 C241.01897,56.9973 240.65097,56.6303 240.17497,56.6303 L238.26797,56.6303 C237.79097,56.6303 237.42497,56.9973 237.42497,57.4733 L237.42497,57.4733 Z M23.7019703,56.7773 L0.375970304,77.5003 C-0.357029696,78.1603 0.044970304,79.2243 1.0359703,79.2243 L2.6859703,79.2243 C3.3459703,79.2243 3.9699703,79.0033 4.4829703,78.5273 L23.7019703,61.5823 L42.7009703,78.5273 C43.2149703,79.0033 43.8389703,79.2243 44.4989703,79.2243 L50.7339703,79.2243 C51.7239703,79.2243 52.0909703,78.1603 51.3579703,77.5003 L28.2139703,56.7773 C27.5899703,56.2273 26.7829703,55.8973 25.9399703,55.8973 C25.0949703,55.8973 24.3259703,56.1903 23.7019703,56.7773 L23.7019703,56.7773 Z M166.41597,57.9143 L166.41597,78.3813 C166.41597,78.8573 166.78297,79.2243 167.26097,79.2243 L169.16797,79.2243 C169.64397,79.2243 170.01097,78.8573 170.01097,78.3813 L170.01097,64.4793 L185.48697,75.2623 C187.39597,76.5823 189.74297,76.5823 191.65097,75.2623 L209.65897,62.7923 L209.65897,78.3813 C209.65897,78.8573 210.02597,79.2243 210.50397,79.2243 L215.49197,79.2243 C215.96797,79.2243 216.33497,78.8573 216.33497,78.3813 L216.33497,57.9143 C216.33497,56.8513 215.45397,55.8973 214.20697,55.8973 C213.03497,55.8973 212.29997,56.3373 211.74997,56.7043 L191.28397,71.1183 L170.81797,56.6663 C170.12097,56.1903 169.64397,55.8973 168.54397,55.8973 C167.36897,55.8973 166.41597,56.8513 166.41597,57.9143 L166.41597,57.9143 Z" fill="#2E2D2C" id="Combined-Shape"></path>
</g>
</g>
</svg>