<svg class="svg--brand-logo" xmlns="http://www.w3.org/2000/svg" viewBox="0 0 109 61" width="109" height="61"><g fill="#292929"><path d="M31.4 57l-1-3.1h-1.3l-.9 3.1-1.1-3.1h-1.3l1.9 5.4h.9l1.2-3.7 1.2 3.7h.9l1.9-5.4h-1.3zM36.3 55.1c-.6 0-1.1.2-1.5.6-.4.4-.6.9-.6 1.6s.2 1.2.6 1.6c.4.4.9.6 1.6.6.6 0 1.2-.2 1.7-.7l-.7-.8c-.3.3-.6.4-1 .4-.3 0-.5-.1-.7-.2-.2-.1-.3-.3-.4-.6h3.1V57c0-.6-.2-1.1-.6-1.4-.4-.3-.9-.5-1.5-.5zm-.9 1.7c0-.2.1-.4.3-.6.2-.1.4-.2.6-.2.2 0 .4.1.6.2.2.1.3.3.3.6h-1.8zM46.6 55.1c-.3 0-.6.1-.8.2-.3.1-.5.3-.7.6-.1-.2-.3-.4-.5-.6-.2-.2-.5-.2-.7-.2-.4 0-.8.2-1.1.5v-.5h-1.2v4.2h1.2V57c0-.3.1-.6.3-.7.2-.2.4-.3.6-.3.2 0 .4.1.5.2.1.2.2.4.2.7v2.3h1.2v-2.3c0-.3.1-.6.3-.7.2-.2.4-.3.6-.3.5 0 .7.3.7 1v2.3h1.2v-2.6c0-.6-.2-1-.5-1.3-.4-.1-.8-.2-1.3-.2zM51.4 55.1c-.6 0-1.2.2-1.6.6-.4.4-.6.9-.6 1.5s.2 1.1.6 1.5c.4.4 1 .6 1.6.6.6 0 1.2-.2 1.6-.6.4-.4.6-.9.6-1.5s-.2-1.1-.6-1.5c-.4-.4-1-.6-1.6-.6zm.7 3c-.2.2-.4.3-.8.3-.3 0-.6-.1-.8-.3-.2-.2-.3-.5-.3-.8 0-.3.1-.6.3-.8.2-.2.4-.3.8-.3.3 0 .6.1.8.3.2.2.3.5.3.8 0 .3-.1.6-.3.8zM56.2 57.8l-1-2.7H54l1.6 4.2h1.2l1.7-4.2h-1.2zM61.1 55.1c-.6 0-1.1.2-1.5.6-.4.4-.6.9-.6 1.6s.2 1.2.6 1.6c.4.4.9.6 1.6.6.6 0 1.2-.2 1.7-.7l-.7-.8c-.3.3-.6.4-1 .4-.3 0-.5-.1-.7-.2-.2-.1-.3-.3-.4-.6h3.1V57c0-.6-.2-1.1-.6-1.4-.4-.3-.9-.5-1.5-.5zm-.9 1.7c0-.2.1-.4.3-.6.2-.1.4-.2.6-.2.2 0 .4.1.6.2.2.1.3.3.3.6h-1.8zM68.1 57.8l-1-2.6h-1.3c1.1 2.7 1.6 4.2 1.6 4.3 0 .1 0 .2-.1.3-.1.1-.2.2-.3.2-.2 0-.4-.1-.6-.3l-.5.9c.4.3.8.5 1.2.5.3 0 .6-.1.8-.2.2-.2.4-.4.5-.7l2-5h-1.3l-1 2.6zM73 55.1c-.6 0-1.2.2-1.6.6-.4.4-.6.9-.6 1.5s.2 1.1.6 1.5c.4.4 1 .6 1.6.6.6 0 1.2-.2 1.6-.6.4-.4.6-.9.6-1.5s-.2-1.1-.6-1.5c-.5-.4-1-.6-1.6-.6zm.7 3c-.2.2-.4.3-.8.3-.3 0-.6-.1-.8-.3-.2-.2-.3-.5-.3-.8 0-.3.1-.6.3-.8.2-.2.4-.3.8-.3.3 0 .6.1.8.3.2.2.3.5.3.8 0 .3-.1.6-.3.8zM78.9 57.4c0 .3-.1.6-.3.7-.2.2-.4.3-.6.3-.5 0-.7-.3-.7-1v-2.3h-1.2v2.5c0 .6.2 1 .5 1.3.3.3.7.4 1.2.4s.8-.2 1.1-.6v.6h1.2v-4.2h-1.2v2.3zM83.1 55.3c-.2.1-.4.3-.6.4v-.6h-1.2v4.2h1.2v-1.8c0-.4.1-.7.3-1 .2-.2.4-.4.8-.4h.2V55c-.3.1-.5.1-.7.3zM91.2 57.7l-.8-2.6h-1.1l-.9 2.6-.8-2.6h-1.2l1.4 4.2H89l.8-2.2.8 2.2h1.2l1.5-4.2H92zM95.9 55.1c-.6 0-1.2.2-1.6.6-.4.4-.6.9-.6 1.5s.2 1.1.6 1.5c.4.4 1 .6 1.6.6.6 0 1.2-.2 1.6-.6.4-.4.6-.9.6-1.5s-.2-1.1-.6-1.5c-.4-.4-.9-.6-1.6-.6zm.8 3c-.2.2-.4.3-.8.3-.3 0-.6-.1-.8-.3-.2-.2-.3-.5-.3-.8 0-.3.1-.6.3-.8.2-.2.4-.3.8-.3.3 0 .6.1.8.3.2.2.3.5.3.8 0 .3-.1.6-.3.8zM100.9 55.3c-.2.1-.4.3-.6.4v-.6h-1.2v4.2h1.2v-1.8c0-.4.1-.7.3-1 .2-.2.4-.4.8-.4h.2V55c-.2.1-.5.1-.7.3zM102.5 53.6h1.2v5.8h-1.2zM107.8 53.6v2.1c-.3-.4-.7-.5-1.3-.5-.5 0-1 .2-1.3.6-.4.4-.6.9-.6 1.5s.2 1.1.6 1.6c.4.4.8.6 1.3.6s.9-.2 1.2-.6v.6h1.2v-5.8h-1.1zm-.2 4.5c-.2.2-.4.3-.7.3-.3 0-.5-.1-.7-.3-.2-.2-.3-.5-.3-.8s.1-.6.3-.9c.2-.2.4-.3.7-.3.3 0 .5.1.7.3.2.2.3.5.3.9-.1.3-.2.6-.3.8zM91.7 35.1h-1.8l-2.4 9h6.7l1.4 4.8h11.2l-11.2-33H84.3l-11.2 33h11.2l5.6-20.2zM64.8 12.2L61.5 0 49.1 3.2l3.7 2.1-9.3 16-3.1-5.4H29.3l8.6 14.9v18.1h11.2V30.8l12-20.7zM0 15.9h11.2v33H0zM28.3 48.9v-33H17.1v7.2h-4.3v11.1h4.3v14.7z"/><path d="M53.2 28.1l7.1 20.8h11.2l11.3-33H71.5l-5.6 16.5-5.6-16.5zM100.6 23.5c.6.3 1.3.5 2.1.5.6 0 1.4-.2 2-.5.6-.3 1.2-.9 1.5-1.5.3-.6.5-1.3.5-2s-.2-1.4-.6-2c-.3-.6-.9-1.1-1.5-1.5-.6-.3-1.3-.5-1.9-.5-.6 0-1.4.2-2.1.6-.6.3-1.2.8-1.5 1.5-.3.6-.5 1.3-.5 2 0 .6.2 1.4.5 2 .3.6.8 1.1 1.5 1.4zm-.9-5.2c.3-.5.7-1 1.2-1.2.5-.3 1.1-.4 1.7-.4.5 0 1.2.2 1.7.4s1 .8 1.2 1.3c.3.5.4 1.1.4 1.7 0 .6-.2 1.2-.4 1.7-.3.5-.8 1-1.3 1.2-.5.3-1.1.4-1.6.4-.6 0-1.2-.2-1.7-.4s-1-.7-1.2-1.2c-.3-.5-.4-1.1-.4-1.6 0-.8.2-1.4.4-1.9z"/><path d="M101.6 20.3h.4c.2 0 .4.1.6.2.1.1.4.6.8 1.1l.4.6h.8l-.6-.8c-.3-.4-.5-.8-.6-.9-.1-.1-.3-.2-.4-.3.4 0 .7-.1 1-.4.2-.2.3-.5.3-.8 0-.2-.1-.4-.3-.6-.1-.2-.3-.4-.5-.4-.2-.1-.6-.1-1.1-.1h-1.5v4.4h.7v-2zm0-1.9h.8c.3 0 .6.1.7.1.1 0 .3.1.3.3.1.1.1.2.1.3 0 .2-.1.4-.3.5-.1.1-.4.1-.8.1h-.8v-1.3z"/></g><g fill="#E33439"><path d="M.9 16.8h9.5V48H.9zM18 23.9h-4.3v9.5H18V48h9.4V16.8H18zM72.2 16.8l-6.3 18.3L60.2 18l-6 10.2L61 48h9.9l10.6-31.2zM95 16.8H85L74.3 48h9.4l6.2-22.5 3 10.4h-2.3l-2 7.4h6.3l1.3 4.7h9.4z"/></g></svg>