<?xml version="1.0" encoding="UTF-8" standalone="no"?>
<svg
   xmlns:dc="http://purl.org/dc/elements/1.1/"
   xmlns:cc="http://creativecommons.org/ns#"
   xmlns:rdf="http://www.w3.org/1999/02/22-rdf-syntax-ns#"
   xmlns:svg="http://www.w3.org/2000/svg"
   xmlns="http://www.w3.org/2000/svg"
   version="1.1"
   id="svg8700"
   viewBox="0 0 500.00001 133.34481"
   height="37.63287mm"
   width="141.11111mm">
  <defs
     id="defs8702">
    <clipPath
       id="clipPath7021"
       clipPathUnits="userSpaceOnUse">
      <path
         id="path7023"
         d="m 451.072,45.355 104.519,0 0,27.874 -104.519,0 0,-27.874 z" />
    </clipPath>
  </defs>
  <metadata
     id="metadata8705">
    <rdf:RDF>
      <cc:Work
         rdf:about="">
        <dc:format>image/svg+xml</dc:format>
        <dc:type
           rdf:resource="http://purl.org/dc/dcmitype/StillImage" />
        <dc:title></dc:title>
      </cc:Work>
    </rdf:RDF>
  </metadata>
  <g
     transform="translate(-2.37312e-5,-919.01743)"
     id="layer1">
    <g
       transform="matrix(4.7838421,0,0,-4.7838421,-2157.8572,1269.3334)"
       clip-path="url(#clipPath7021)"
       id="g7073">
      <path
         d="m 509.0286,49.8461 4.55,0 -0.991,-3.983 c -1.441,-0.308 -3.082,-0.509 -4.526,-0.509 -3.18,0 -4.319,1.676 -3.744,4.007 0.575,2.332 2.543,4.007 5.825,4.007 2.713,0 3.937,-0.768 3.534,-2.552 l -3.279,0 c 0.048,0.244 -0.025,0.401 -0.146,0.495 -0.123,0.096 -0.319,0.137 -0.539,0.137 -0.526,0 -0.929,-0.231 -1.175,-0.538 -0.244,-0.304 -0.476,-1.052 -0.636,-1.696 -0.183,-0.741 -0.232,-1.245 -0.133,-1.488 0.123,-0.315 0.44,-0.455 0.892,-0.455 0.329,0 0.65,0.044 0.966,0.161 l 0.222,0.918 -1.201,0 0.381,1.496 z"
         style="fill:#a7a5a6;fill-opacity:1;fill-rule:nonzero;stroke:none"
         id="path7075" />
      <path
         d="m 518.4606,49.9938 c 0.672,0 1.222,0.2 1.357,0.77 0.135,0.559 -0.281,0.676 -0.968,0.676 l -0.316,0 -0.367,-1.446 0.294,0 z m -2.936,3.173 5.222,0 c 1.895,0 2.889,-0.496 2.544,-1.93 -0.218,-0.874 -0.806,-1.537 -2.2,-1.811 l 0,-0.021 c 0.831,-0.065 1.224,-0.392 1.246,-0.971 0.037,-0.654 -0.255,-1.73 -0.132,-2.879 l -3.427,0 c -0.073,0.569 0.061,1.53 0.1,2.182 0.021,0.381 -0.162,0.528 -0.724,0.528 l -0.403,0 -0.675,-2.71 -3.424,0 1.873,7.612 z"
         style="fill:#a7a5a6;fill-opacity:1;fill-rule:nonzero;stroke:none"
         id="path7077" />
      <path
         d="m 527.6107,47.3363 c 0.536,0 1.003,0.265 1.443,2.025 0.416,1.718 0.122,2.024 -0.44,2.024 -0.563,0 -1.027,-0.306 -1.443,-2.024 -0.443,-1.76 -0.098,-2.025 0.44,-2.025 m 1.492,6.031 c 3.047,0 4.159,-1.633 3.572,-4.006 -0.588,-2.373 -2.508,-4.007 -5.553,-4.007 -3.047,0 -4.159,1.634 -3.574,4.007 0.59,2.373 2.51,4.006 5.555,4.006"
         style="fill:#a7a5a6;fill-opacity:1;fill-rule:nonzero;stroke:none"
         id="path7079" />
      <path
         d="m 541.6177,48.1061 c -0.453,-1.834 -2.202,-2.752 -4.871,-2.752 -2.665,0 -3.974,0.918 -3.522,2.752 l 1.248,5.061 3.499,0 -1.21,-4.934 c -0.148,-0.602 0.121,-0.832 0.488,-0.832 0.368,0 0.759,0.23 0.905,0.832 l 1.211,4.934 3.501,0 -1.249,-5.061 z"
         style="fill:#a7a5a6;fill-opacity:1;fill-rule:nonzero;stroke:none"
         id="path7081" />
      <path
         d="m 546.9138,49.8461 c 0.907,0 1.311,0.283 1.445,0.823 0.133,0.536 -0.098,0.77 -0.859,0.77 l -0.366,0 -0.39,-1.593 0.17,0 z m -2.862,3.321 5.138,0 c 2.129,0 2.875,-1.061 2.521,-2.498 -0.381,-1.52 -1.772,-2.551 -4.245,-2.551 l -1.15,0 -0.638,-2.563 -3.499,0 1.873,7.612 z"
         style="fill:#a7a5a6;fill-opacity:1;fill-rule:nonzero;stroke:none"
         id="path7083" />
      <path
         d="m 451.0719,55.4635 4.828,0 2.005,12.115 -0.082,-12.115 5.238,0 3.93,11.911 -2.005,-11.911 4.828,0 2.986,17.762 -7.856,0 -3.195,-10.312 0.165,10.27 -7.815,0 -3.027,-17.72 z"
         style="fill:#ed1c24;fill-opacity:1;fill-rule:nonzero;stroke:none"
         id="path7085" />
      <path
         d="m 481.2737,62.7071 -2.294,0 2.294,6.264 0,-6.264 z m 5.933,-7.244 -1.515,17.762 -7.324,0 -7.53,-17.805 5.483,0 1.065,2.825 3.927,0 0,-2.782 5.894,0 z"
         style="fill:#ed1c24;fill-opacity:1;fill-rule:nonzero;stroke:none"
         id="path7087" />
      <path
         d="m 488.1621,55.4203 4.624,0 1.828,10.604 1.144,-10.561 6.753,0 2.988,17.721 -4.583,0 -1.842,-10.436 -1.105,10.477 -6.754,0 -3.053,-17.805 z"
         style="fill:#ed1c24;fill-opacity:1;fill-rule:nonzero;stroke:none"
         id="path7089" />
      <path
         d="m 504.4355,55.4635 5.69,0 3.096,17.764 -5.809,0 -2.977,-17.764 z"
         style="fill:#ed1c24;fill-opacity:1;fill-rule:nonzero;stroke:none"
         id="path7091" />
      <path
         d="m 533.5737,66.5547 c -0.368,-2.209 -0.898,-5.525 -0.898,-5.525 0,0 -0.323,-1.731 -1.744,-0.95 0,0 -0.447,0.111 -0.264,1.441 l 0.779,5.238 c 0,0 0.263,2.135 1.462,1.884 0,0 1.006,-0.055 0.665,-2.088 m 4.138,5.806 c -1.398,0.973 -3.089,0.865 -5.489,0.865 l -17.762,0 -0.826,-4.791 3.119,0 -2.128,-12.985 5.647,0 2.169,12.904 3.724,0 -1.188,-6.956 c 0,0 -1.55,-6.219 5.65,-6.219 7.204,0 7.611,5.482 7.611,5.482 l 1.186,7.246 c 0,0 0.554,2.869 -1.713,4.454"
         style="fill:#ed1c24;fill-opacity:1;fill-rule:nonzero;stroke:none"
         id="path7093" />
      <path
         d="m 542.1675,73.1862 5.606,0 -1.963,-11.747 c 0,0 -0.286,-1.226 0.613,-1.513 0.9,-0.287 1.326,0.489 1.554,1.677 0.173,0.9 2.007,11.583 2.007,11.583 l 5.606,0 -2.168,-12.607 c 0,0 -0.735,-5.441 -7.531,-5.4 -6.259,0.033 -5.89,3.884 -5.809,5.44 l 2.085,12.567 z"
         style="fill:#ed1c24;fill-opacity:1;fill-rule:nonzero;stroke:none"
         id="path7095" />
    </g>
  </g>
</svg>
