<?xml version="1.0" encoding="UTF-8"?>
<svg id="Livello_1" data-name="Livello 1" xmlns="http://www.w3.org/2000/svg" viewBox="0 0 15.2 10.2">
  <defs>
    <style>
      .cls-1 {
        fill: #fff;
        stroke-width: 0px;
      }
    </style>
  </defs>
  <path class="cls-1" d="M4,2.9h1.2s.5.1.5.9-.5.8-.5.8h-1.2v-1.6h0v-.1ZM0,5.1C0,2.3,3.4,0,7.6,0s7.6,2.3,7.6,5.1-3.4,5.1-7.6,5.1S0,7.9,0,5.1M10.3,4.2l-.5-1v-1.3h-2.3v2c.3-.1.5.5.5.5v1.5c0,.5-.5.5-.5.5v2.1l2.3.8v-2.4s-.5-.1-.5-1v-1.6l.6,1v.9h1.1v-.9l.6-1v1.4c0,.9-.5,1-.5,1v2.4l2.2-1v-1.9s-.4,0-.4-.5v-1.3s.1-.4.5-.5V1.9h-2.3v1.3l-.6,1h-.2ZM6,5.8l1.1-1.1v-1.8l-1-1.1H2v1.9c.4,0,.5.3.5.3v1.9c0,.6-.5.5-.5.5v1.3c0,.4.3.6.3.6l2.2.6v-2.3l-.4-.2c-.13-.07-.2-.23-.2-.5,0-.4.3-.3.3-.3h1.8v.2h0Z"/>
</svg>