<?xml version="1.0" encoding="UTF-8"?>
<svg id="Logo" xmlns="http://www.w3.org/2000/svg" viewBox="0 0 2000 250">
  <defs>
    <style>
      .cls-1 {
        fill: #1d1d1b;
      }

      .cls-2 {
        fill: #e30613;
      }
    </style>
  </defs>
  <g id="bildmarke">
    <path class="cls-2" d="M0,0v58.14L58.14,0H0ZM104.35,0L0,104.35v66.3L170.64,0h-66.3ZM250,191.85l-58.15,58.15h58.15v-58.15ZM250,79.35L79.35,250h66.3l104.36-104.36v-66.29Z"/>
    <polygon class="cls-1" points="250 0 216.85 0 0 216.85 33.14 216.86 33.14 250 250 33.14 250 0"/>
  </g>
  <g>
    <path class="cls-1" d="M1106.13,199.69l5.8-25.19h-2.02c-5.02,0-8.95-1.46-11.06-4.11-.76-.97-1.32-2.11-1.67-3.43l-8.8-32.04c11.47-1.29,29.38-8.41,34.19-29.33l2.65-11.32c4.5-21.78,2.86-44.26-43.48-44.26h-49.93l-34.53,149.69h29.92l14.89-64.55h16.45l14.74,53.84.87,3.18c.35,1.31.9,2.46,1.66,3.42,2.11,2.65,6.04,4.12,11.06,4.12h19.26ZM1095.62,89.72l-.69,3.12-1.52,6.9-.92,3.26c-1.63,6.4-6.41,8.05-14.62,8.1h-30.24l8.59-37.23h26.81c5.02,0,8.95,1.46,11.06,4.12,2.11,2.66,2.65,6.82,1.53,11.71Z"/>
    <path class="cls-1" d="M1979.23,199.69l5.8-25.19h-2.02c-5.02,0-8.95-1.46-11.06-4.11-.76-.97-1.32-2.11-1.67-3.43l-8.79-32.04c11.47-1.29,29.38-8.41,34.2-29.33l2.64-11.32c4.5-21.78,2.85-44.26-43.48-44.26h-49.92l-34.54,149.69h29.91l14.9-64.55h16.45l14.74,53.84.86,3.18c.35,1.31.92,2.46,1.66,3.42,2.12,2.65,6.04,4.12,11.07,4.12h19.25ZM1968.73,89.72l-.7,3.12-1.52,6.9-.92,3.26c-1.63,6.4-6.41,8.05-14.62,8.1h-30.23l8.59-37.23h26.8c5.03,0,8.95,1.46,11.06,4.12,2.12,2.66,2.66,6.82,1.53,11.71Z"/>
    <polygon class="cls-1" points="1618.12 50 1588.21 50 1553.68 199.69 1583.59 199.69 1583.59 199.69 1636.71 199.69 1642.23 175.74 1589.11 175.74 1618.12 50"/>
    <polygon class="cls-1" points="647.6 105.25 597.43 105.25 610.18 50 580.26 50 545.74 199.69 575.65 199.69 591.91 129.21 642.08 129.21 625.82 199.69 655.73 199.69 690.26 50 660.35 50 647.6 105.25"/>
    <path class="cls-1" d="M964.83,50h-29.91l-82.89,149.69h29.91l20.19-36.45h47.76l1.36,36.45h29.91l-5.57-149.69h-10.75ZM915.39,139.28l31.49-56.86,2.12,56.86h-33.6Z"/>
    <polygon class="cls-1" points="866.66 50 817.31 159.31 817.31 50 787.4 50 787.4 50 787.17 50 736.03 160.65 736.03 50 706.12 50 706.12 199.69 717.99 199.69 717.99 199.69 743.15 199.69 787.4 103.97 787.4 199.69 799.07 199.69 799.07 199.69 828.45 199.69 896.05 50 866.66 50"/>
    <polygon class="cls-1" points="1379.55 50 1369.12 50 1336.64 141.12 1336.64 50 1306.74 50 1306.74 50 1293.67 50 1240.32 199.69 1268.66 199.69 1306.74 92.83 1306.74 199.69 1315.78 199.69 1315.78 199.69 1340.94 199.69 1379.55 91.35 1379.55 199.69 1409.46 199.69 1409.46 50 1379.55 50 1379.55 50"/>
    <polygon class="cls-1" points="1717.24 50 1687.33 50 1652.8 199.69 1682.71 199.69 1682.71 199.69 1735.83 199.69 1741.35 175.74 1688.24 175.74 1717.24 50"/>
    <polygon class="cls-1" points="1871.59 73.95 1877.11 50 1818.56 50 1790.76 50 1788.65 50 1754.13 199.69 1784.03 199.69 1784.03 199.69 1845.42 199.69 1850.94 175.74 1789.56 175.74 1798.94 135.06 1853.23 135.06 1858.76 111.11 1804.46 111.11 1813.04 73.95 1871.59 73.95"/>
    <path class="cls-1" d="M474.35,115.07l3.36-14.58c1.14-4.93,4.79-10.24,9.78-14.21,4.99-3.97,10.99-6.35,16.04-6.35h42.24l6.91-29.94h-49.15c-24.68,0-49.41,19.69-54.97,43.75l-3.36,14.59-7.62,33.01c-7.4,32.09,13.47,58.34,46.37,58.34h44.46l6.91-29.93h-51.37c-6.61,0-11.9-2.07-14.89-5.84-2.99-3.77-3.82-9.38-2.33-15.84l7.61-33.01Z"/>
    <path class="cls-1" d="M344.4,79.56l-4.45,21.2c-2.43,9.8,1.29,26.18,21.39,33.04l18.54,6.61c12.44,4.24,9.55,13.96,9.55,13.96l-1.93,9.11c-1.28,5.57-7.46,6.23-9.09,6.28h-59.01l-6.9,29.93h65.87c10.8,0,32.64-6.12,38.03-29.56l4.45-21.2c2.43-9.81-1.29-26.19-21.39-33.04l-19.72-7.03c-10.83-3.33-8.41-13.34-8.41-13.34l1.98-9.37c1.28-5.57,7.45-6.21,9.08-6.27h43.52l6.89-29.88h-50.38c-10.8,0-32.63,6.11-38.03,29.56Z"/>
    <polygon class="cls-1" points="1253.02 66.93 1256.93 50 1240.32 50 1229.37 50 1162.41 50 1156.89 73.95 1210.53 73.95 1127.7 179.23 1122.91 200 1146.12 200 1148.32 200 1224.03 200 1229.56 176.05 1167.16 176.05 1253.02 66.93"/>
    <g>
      <polygon class="cls-1" points="1486.05 50 1456.13 50 1449.23 79.94 1479.13 79.94 1486.05 50"/>
      <polygon class="cls-1" points="1531.27 50 1524.37 79.94 1554.27 79.94 1561.18 50 1531.27 50"/>
      <path class="cls-1" d="M1506.16,157.95c-1.29,5.63-9.06,11.8-14.82,11.8h-16.12c-5.02,0-8.95-1.47-11.05-4.13-2.12-2.66-2.66-6.82-1.53-11.71l13.19-56.4h-31.7l-4.67,19.95-8.89,38.47c-5.54,24.07,10.1,43.76,34.78,43.76h25.99c19.73,0,39.52-15.74,43.97-35.01l15.43-67.16h-30.7l-13.87,60.44Z"/>
    </g>
  </g>
</svg>