<?xml version="1.0" encoding="utf-8"?>
<!-- Generator: Adobe Illustrator 14.0.0, SVG Export Plug-In . SVG Version: 6.00 Build 43363)  -->
<!DOCTYPE svg PUBLIC "-//W3C//DTD SVG 1.1//EN" "http://www.w3.org/Graphics/SVG/1.1/DTD/svg11.dtd">
<svg version="1.1"
	 id="Calque_1" inkscape:version="0.47 r22583" sodipodi:docname="Van Hool.svg" xmlns:dc="http://purl.org/dc/elements/1.1/" xmlns:cc="http://creativecommons.org/ns#" xmlns:rdf="http://www.w3.org/1999/02/22-rdf-syntax-ns#" xmlns:inkscape="http://www.inkscape.org/namespaces/inkscape" xmlns:svg="http://www.w3.org/2000/svg" xmlns:sodipodi="http://sodipodi.sourceforge.net/DTD/sodipodi-0.dtd"
	 xmlns="http://www.w3.org/2000/svg" xmlns:xlink="http://www.w3.org/1999/xlink" x="0px" y="0px" width="176.75px"
	 height="83.061px" viewBox="0 0 176.75 83.061" enable-background="new 0 0 176.75 83.061" xml:space="preserve">
<defs>
	
	
		<inkscape:perspective  id="perspective37" inkscape:persp3d-origin="306 : 264 : 1" inkscape:vp_y="0 : 1000 : 0" inkscape:vp_x="0 : 396 : 1" sodipodi:type="inkscape:persp3d" inkscape:vp_z="612 : 396 : 1">
		</inkscape:perspective>
</defs>
<sodipodi:namedview  id="namedview31" inkscape:current-layer="Calque_1" inkscape:window-y="-8" inkscape:window-x="-8" inkscape:window-height="738" inkscape:window-width="1280" inkscape:pageshadow="2" inkscape:pageopacity="0" inkscape:window-maximized="1" inkscape:cy="117.16362" inkscape:cx="386.08783" inkscape:zoom="1" showgrid="false" gridtolerance="10" objecttolerance="10" borderopacity="1" bordercolor="#666666" pagecolor="#ffffff" guidetolerance="10">
	</sodipodi:namedview>
<g id="g2856" transform="translate(-217.004,-354.846)">
	<polygon id="polygon7" points="217.504,437.367 217.504,355.35 217.504,355.379 393.24,355.379 393.252,355.379 393.252,437.406 
		393.236,437.406 217.504,437.406 	"/>
	<polygon id="polygon9" fill="#FFFFFF" points="220.651,434.389 390.106,434.389 390.106,434.389 390.106,358.396 220.651,358.396 	
		"/>
	<polygon id="polygon11" points="223.991,430.961 386.328,430.961 386.328,430.961 386.328,361.387 223.991,361.387 	"/>
	<polygon id="polygon13" fill="#FFFFFF" points="244.687,383.53 240.937,388.945 237.792,383.705 237.792,383.705 230.1,383.705 
		241.111,401.523 251.943,383.53 	"/>
	<polygon id="polygon15" fill="#FFFFFF" points="262.506,401.35 258.105,394.798 253.859,401.35 253.859,401.35 246.527,401.35 
		257.97,381.783 269.756,401.35 	"/>
	<polygon id="polygon17" fill="#FFFFFF" points="278.579,401.35 271.945,401.35 271.945,380.822 284.96,390.081 284.96,383.53 
		291.418,383.53 291.418,403.184 278.573,394.973 	"/>
	<polygon id="polygon19" fill="#FFFFFF" points="302.692,422.574 296.49,422.574 296.49,390.25 296.49,390.076 296.49,390.076 
		293.608,390.076 293.608,383.53 296.49,383.53 296.49,369.904 302.692,369.904 302.692,383.53 306.711,383.53 306.711,369.904 
		312.912,369.904 312.912,383.53 315.707,383.53 315.707,390.168 312.912,390.168 312.912,422.574 306.711,422.574 306.711,390.25 
		302.692,390.25 	"/>
	<path id="path21" fill="#FFFFFF" d="M327.499,382.238c5.731,0,10.377,4.646,10.377,10.376s-4.646,10.376-10.377,10.376
		c-5.729,0-10.376-4.646-10.376-10.376C317.123,386.883,321.77,382.238,327.499,382.238L327.499,382.238z"/>
	<path id="path23" d="M327.499,388.908c2.047,0,3.706,1.659,3.706,3.706c0,2.046-1.659,3.706-3.706,3.706
		c-2.048,0-3.706-1.659-3.706-3.706S325.451,388.908,327.499,388.908L327.499,388.908z"/>
	<path id="path25" fill="#FFFFFF" d="M351.171,382.343c5.729,0,10.376,4.646,10.376,10.376c0,5.732-4.646,10.376-10.376,10.376
		c-5.731,0-10.377-4.645-10.377-10.376C340.794,386.989,345.44,382.343,351.171,382.343L351.171,382.343z"/>
	<path id="path27" d="M351.171,389.014c2.047,0,3.706,1.659,3.706,3.706s-1.659,3.706-3.706,3.706s-3.706-1.659-3.706-3.706
		S349.124,389.014,351.171,389.014L351.171,389.014z"/>
	<polygon id="polygon29" fill="#FFFFFF" points="371.436,394.973 379.509,394.973 379.554,401.35 379.554,401.35 365.49,401.35 
		365.49,384.054 371.436,384.054 	"/>
</g>
</svg>
